<svg width="179" height="26" viewBox="0 0 179 26" fill="none" xmlns="http://www.w3.org/2000/svg">
<path d="M8.56411 12.3206H19.838L18.9347 16.6695H7.69432L8.56411 12.3206ZM6.42308 25.2002H0.970153L5.65365 1.7827H23.3506L22.4473 6.13166H10.2033L6.42308 25.2002ZM22.0015 25.2002L26.9526 0.377652H32.1713L27.2202 25.2002H22.0015ZM40.1929 25.4678C38.8101 25.4678 37.5278 25.1556 36.3457 24.5311C35.1637 23.8844 34.2158 22.9588 33.5022 21.7545C32.7885 20.5502 32.4317 19.1005 32.4317 17.4055C32.4317 15.889 32.677 14.4951 33.1676 13.2238C33.6806 11.9526 34.3943 10.8486 35.3087 9.91192C36.2231 8.97522 37.2824 8.25039 38.4868 7.73744C39.6911 7.20218 40.9846 6.93455 42.3674 6.93455C43.8616 6.93455 45.144 7.21333 46.2145 7.77089C47.285 8.32845 48.0768 9.19824 48.5897 10.3803C49.125 11.54 49.3146 13.0454 49.1584 14.8965C49.0469 17.0152 48.612 18.8775 47.8537 20.4832C47.0955 22.0667 46.0696 23.2933 44.776 24.1631C43.5048 25.0329 41.9771 25.4678 40.1929 25.4678ZM41.7987 21.1523C42.8246 21.1523 43.7278 20.907 44.5084 20.4163C45.3113 19.9034 45.9357 19.212 46.3818 18.3422C46.8501 17.4501 47.0843 16.4131 47.0843 15.231C47.0843 14.0044 46.7163 13.0343 45.9804 12.3206C45.2667 11.6069 44.2631 11.2501 42.9695 11.2501C41.9659 11.2501 41.0627 11.5065 40.2598 12.0195C39.4569 12.5101 38.8213 13.2015 38.3529 14.0936C37.9069 14.9634 37.6839 15.9893 37.6839 17.1713C37.6839 18.398 38.0407 19.3681 38.7544 20.0818C39.4904 20.7955 40.5051 21.1523 41.7987 21.1523ZM45.3782 25.2002L46.0807 21.6207L47.2516 16.2681L47.9541 10.9155L48.6901 7.20218H53.9088L50.3293 25.2002H45.3782ZM62.4873 25.4678C61.1938 25.4678 60.0898 25.2113 59.1754 24.6984C58.261 24.1631 57.6031 23.4049 57.2017 22.4235C56.8225 21.4199 56.7668 20.2379 57.0344 18.8775L60.1456 3.22121H65.3643L62.2532 18.844C62.1193 19.6023 62.1974 20.2045 62.4873 20.6505C62.7773 21.0966 63.3125 21.3196 64.0931 21.3196C64.4499 21.3196 64.8068 21.2638 65.1636 21.1523C65.5428 21.0408 65.8884 20.8847 66.2007 20.684L66.9701 24.3973C66.3233 24.7988 65.6097 25.0775 64.8291 25.2336C64.0485 25.3898 63.2679 25.4678 62.4873 25.4678ZM55.6963 11.618L56.4991 7.60362H68.9773L68.1744 11.618H55.6963ZM78.7113 25.4678C76.8379 25.4678 75.2098 25.1333 73.827 24.4642C72.4666 23.7951 71.4072 22.8584 70.649 21.6541C69.8907 20.4498 69.5115 19.0336 69.5115 17.4055C69.5115 15.3983 69.9576 13.6141 70.8497 12.0529C71.7641 10.4695 73.013 9.22054 74.5965 8.30615C76.2022 7.39175 78.0422 6.93455 80.1163 6.93455C81.8782 6.93455 83.3948 7.26909 84.666 7.93816C85.9372 8.58493 86.9185 9.49932 87.6099 10.6813C88.3236 11.8411 88.6804 13.235 88.6804 14.863C88.6804 15.3314 88.647 15.7997 88.5801 16.2681C88.5355 16.7364 88.4686 17.1825 88.3793 17.6062H73.4925L74.0278 14.562H85.9372L83.7962 15.4987C83.9746 14.4951 83.9189 13.6587 83.6289 12.9896C83.339 12.2983 82.8707 11.7742 82.2239 11.4173C81.5771 11.0382 80.7965 10.8486 79.8821 10.8486C78.7447 10.8486 77.7746 11.1274 76.9717 11.685C76.1911 12.2202 75.6001 12.9673 75.1986 13.9263C74.7972 14.8853 74.5965 15.967 74.5965 17.1713C74.5965 18.5541 74.9756 19.5911 75.7339 20.2825C76.5145 20.9516 77.6854 21.2861 79.2465 21.2861C80.1609 21.2861 81.0419 21.1412 81.8894 20.8512C82.7368 20.5613 83.4617 20.1487 84.0638 19.6135L86.2383 23.0592C85.1901 23.8844 84.0081 24.4977 82.6922 24.8991C81.3987 25.2783 80.0717 25.4678 78.7113 25.4678Z" fill="white"/>
<path d="M90.4846 25.2002L95.1681 1.7827H99.5839L106.241 18.3757L103.899 18.3422L116.879 1.7827H121.529L116.879 25.2002H111.794L114.906 9.51048H115.943L105.606 22.7246H103.197L97.6771 9.47702L98.6807 9.57738L95.5695 25.2002H90.4846ZM130.23 25.4678C128.847 25.4678 127.565 25.1556 126.383 24.5311C125.201 23.8844 124.253 22.9588 123.539 21.7545C122.826 20.5502 122.469 19.1005 122.469 17.4055C122.469 15.889 122.714 14.4951 123.205 13.2238C123.718 11.9526 124.431 10.8486 125.346 9.91192C126.26 8.97522 127.32 8.25039 128.524 7.73744C129.728 7.20218 131.022 6.93455 132.404 6.93455C133.899 6.93455 135.181 7.21333 136.252 7.77089C137.322 8.32845 138.114 9.19824 138.627 10.3803C139.162 11.54 139.352 13.0454 139.196 14.8965C139.084 17.0152 138.649 18.8775 137.891 20.4832C137.133 22.0667 136.107 23.2933 134.813 24.1631C133.542 25.0329 132.014 25.4678 130.23 25.4678ZM131.836 21.1523C132.862 21.1523 133.765 20.907 134.546 20.4163C135.348 19.9034 135.973 19.212 136.419 18.3422C136.887 17.4501 137.121 16.4131 137.121 15.231C137.121 14.0044 136.753 13.0343 136.017 12.3206C135.304 11.6069 134.3 11.2501 133.007 11.2501C132.003 11.2501 131.1 11.5065 130.297 12.0195C129.494 12.5101 128.858 13.2015 128.39 14.0936C127.944 14.9634 127.721 15.9893 127.721 17.1713C127.721 18.398 128.078 19.3681 128.792 20.0818C129.527 20.7955 130.542 21.1523 131.836 21.1523ZM135.415 25.2002L136.118 21.6207L137.289 16.2681L137.991 10.9155L138.727 7.20218H143.946L140.366 25.2002H135.415ZM152.524 25.4678C151.231 25.4678 150.127 25.2113 149.213 24.6984C148.298 24.1631 147.64 23.4049 147.239 22.4235C146.86 21.4199 146.804 20.2379 147.072 18.8775L150.183 3.22121H155.401L152.29 18.844C152.156 19.6023 152.235 20.2045 152.524 20.6505C152.814 21.0966 153.35 21.3196 154.13 21.3196C154.487 21.3196 154.844 21.2638 155.201 21.1523C155.58 21.0408 155.926 20.8847 156.238 20.684L157.007 24.3973C156.36 24.7988 155.647 25.0775 154.866 25.2336C154.086 25.3898 153.305 25.4678 152.524 25.4678ZM145.733 11.618L146.536 7.60362H159.014L158.212 11.618H145.733ZM168.748 25.4678C166.875 25.4678 165.247 25.1333 163.864 24.4642C162.504 23.7951 161.444 22.8584 160.686 21.6541C159.928 20.4498 159.549 19.0336 159.549 17.4055C159.549 15.3983 159.995 13.6141 160.887 12.0529C161.801 10.4695 163.05 9.22054 164.634 8.30615C166.239 7.39175 168.079 6.93455 170.153 6.93455C171.915 6.93455 173.432 7.26909 174.703 7.93816C175.974 8.58493 176.956 9.49932 177.647 10.6813C178.361 11.8411 178.718 13.235 178.718 14.863C178.718 15.3314 178.684 15.7997 178.617 16.2681C178.573 16.7364 178.506 17.1825 178.416 17.6062H163.53L164.065 14.562H175.974L173.833 15.4987C174.012 14.4951 173.956 13.6587 173.666 12.9896C173.376 12.2983 172.908 11.7742 172.261 11.4173C171.614 11.0382 170.834 10.8486 169.919 10.8486C168.782 10.8486 167.812 11.1274 167.009 11.685C166.228 12.2202 165.637 12.9673 165.236 13.9263C164.834 14.8853 164.634 15.967 164.634 17.1713C164.634 18.5541 165.013 19.5911 165.771 20.2825C166.552 20.9516 167.722 21.2861 169.284 21.2861C170.198 21.2861 171.079 21.1412 171.926 20.8512C172.774 20.5613 173.499 20.1487 174.101 19.6135L176.275 23.0592C175.227 23.8844 174.045 24.4977 172.729 24.8991C171.436 25.2783 170.109 25.4678 168.748 25.4678Z" fill="#8ECAE6"/>
</svg>
